<svg width="61" height="65" viewBox="0 0 61 65" fill="none" xmlns="http://www.w3.org/2000/svg">
<path fill-rule="evenodd" clip-rule="evenodd" d="M58.2761 52.0781C58.2761 57.601 53.799 62.0781 48.2761 62.0781H2.27123C2.27447 62.0454 2.27613 62.0121 2.27613 61.9785V12.9785C2.27613 7.45567 6.75328 2.97852 12.2761 2.97852H58.281C58.2778 3.01128 58.2761 3.04451 58.2761 3.07812V52.0781ZM0.276123 63.0781C0.276123 62.875 0.33667 62.6861 0.440697 62.5283C0.33667 62.3706 0.276123 62.1816 0.276123 61.9785V2.97852C0.276123 1.87395 1.17156 0.978516 2.27613 0.978516H59.2761C59.8284 0.978516 60.2761 1.42623 60.2761 1.97852C60.2761 2.18161 60.2156 2.37057 60.1116 2.52832C60.2156 2.68607 60.2761 2.87503 60.2761 3.07812V62.0781C60.2761 63.1827 59.3807 64.0781 58.2761 64.0781H1.27613C0.723839 64.0781 0.276123 63.6304 0.276123 63.0781ZM36.0952 32.0955C32.7853 28.9663 27.6079 28.9663 24.298 32.0955L15.7574 40.17C15.4128 40.4958 14.8541 40.4958 14.5096 40.17C14.165 39.8442 14.165 39.3161 14.5096 38.9903L29.7627 24.5697C29.8736 24.4648 30.0471 24.4648 30.158 24.5697L30.2375 24.6449C30.3038 24.7075 30.4075 24.7075 30.4738 24.6449C30.5401 24.5822 30.6438 24.5822 30.7101 24.6449L46.0427 39.1407C46.3873 39.4664 46.3873 39.9946 46.0427 40.3204C45.6982 40.6462 45.1395 40.6462 44.7949 40.3204L36.0952 32.0955Z" fill="black" fill-opacity="0.3"/>
</svg>
