<svg width="61" height="65" viewBox="0 0 61 65" fill="none" xmlns="http://www.w3.org/2000/svg">
<path fill-rule="evenodd" clip-rule="evenodd" d="M58.2762 52.0781C58.2762 57.601 53.7991 62.0781 48.2762 62.0781H2.27135C2.27459 62.0454 2.27625 62.0121 2.27625 61.9785V12.9785C2.27625 7.45567 6.7534 2.97852 12.2762 2.97852H58.2811C58.2779 3.01128 58.2762 3.04451 58.2762 3.07812V52.0781ZM0.276245 63.0781C0.276245 62.875 0.336792 62.6861 0.440819 62.5283C0.336792 62.3706 0.276245 62.1816 0.276245 61.9785V2.97852C0.276245 1.87395 1.17168 0.978516 2.27625 0.978516H59.2762C59.8285 0.978516 60.2762 1.42623 60.2762 1.97852C60.2762 2.18161 60.2157 2.37057 60.1117 2.52832C60.2157 2.68607 60.2762 2.87503 60.2762 3.07812V62.0781C60.2762 63.1827 59.3808 64.0781 58.2762 64.0781H1.27625C0.723961 64.0781 0.276245 63.6304 0.276245 63.0781ZM36.0953 32.0955C32.7854 28.9663 27.608 28.9663 24.2981 32.0955L15.7575 40.17C15.4129 40.4958 14.8542 40.4958 14.5097 40.17C14.1651 39.8442 14.1651 39.3161 14.5097 38.9903L29.7628 24.5697C29.8737 24.4648 30.0472 24.4648 30.1581 24.5697L30.2376 24.6449C30.3039 24.7075 30.4076 24.7075 30.4739 24.6449C30.5402 24.5822 30.6439 24.5822 30.7102 24.6449L46.0428 39.1407C46.3874 39.4664 46.3874 39.9946 46.0428 40.3204C45.6983 40.6462 45.1396 40.6462 44.795 40.3204L36.0953 32.0955Z" fill="#212121"/>
</svg>
