<svg width="755" height="759" viewBox="0 0 755 759" fill="none" xmlns="http://www.w3.org/2000/svg">
<path d="M99.0501 190.367L77.375 174.276L86.2368 162.339L88.9152 164.327L82.2142 173.353L101.211 187.456L99.0501 190.367Z" fill="#212121"/>
<path d="M109.07 177.086L88.4179 159.701L90.7524 156.928L99.1461 163.993L108.087 153.372L99.6931 146.306L102.028 143.533L122.68 160.918L120.345 163.691L110.639 155.52L101.698 166.141L111.405 174.312L109.07 177.086Z" fill="#212121"/>
<path d="M124.82 158.9L105.138 140.424L116.726 128.081L119.087 130.298L109.981 139.998L115.844 145.501L123.775 137.052L126.039 139.177L118.107 147.626L124.926 154.027L134.111 144.242L136.487 146.472L124.82 158.9Z" fill="#212121"/>
<path d="M138.647 144.737L120.323 124.913L126.836 118.892C128.696 117.173 130.594 116.206 132.531 115.991C134.469 115.758 136.197 116.463 137.715 118.105C138.3 118.738 138.707 119.491 138.936 120.364C139.157 121.228 139.223 122.104 139.133 122.992C139.053 123.871 138.836 124.64 138.483 125.299C139.865 124.617 141.33 124.374 142.878 124.571C144.435 124.76 145.816 125.506 147.02 126.808C148.006 127.875 148.61 129.068 148.831 130.386C149.061 131.696 148.904 133.05 148.358 134.448C147.812 135.827 146.864 137.141 145.515 138.388L138.647 144.737ZM139.294 140.095L143.017 136.653C144.481 135.3 145.304 134.014 145.489 132.793C145.683 131.563 145.239 130.363 144.157 129.193C143.101 128.051 141.935 127.518 140.658 127.595C139.382 127.654 137.98 128.391 136.45 129.804L132.854 133.129L139.294 140.095ZM130.917 131.033L134.329 127.879C135.15 127.12 135.746 126.324 136.115 125.493C136.484 124.661 136.607 123.847 136.484 123.051C136.361 122.237 135.977 121.48 135.331 120.782C134.406 119.781 133.341 119.348 132.135 119.483C130.938 119.608 129.679 120.282 128.357 121.504L124.987 124.619L130.917 131.033Z" fill="#212121"/>
<path d="M261.934 73.0526L264.423 44.1487L268.027 43.0769L286.22 65.8305L282.301 66.9957L277.803 61.2724L266.27 64.702L265.741 71.9204L261.934 73.0526ZM266.348 61.3796L275.885 58.5435L267.422 47.944L266.348 61.3796Z" fill="#212121"/>
<path d="M302.897 62.086L288.893 50.5323L295.691 36.037L300.018 35.0634L293.192 49.5253L307.468 61.0574L302.897 62.086ZM286.549 65.7645L280.623 39.4277L284.159 38.6319L286.568 49.3359L291.421 48.2438L292.154 51.4983L287.3 52.5904L290.086 64.9687L286.549 65.7645Z" fill="#212121"/>
<path d="M313.03 60.4001L309.218 37.0497L301.587 38.2954L301.049 35.0032L319.889 31.9276L320.427 35.2199L312.796 36.4657L316.607 59.8161L313.03 60.4001Z" fill="#212121"/>
<path d="M325.752 58.4802L323.117 31.6138L326.706 31.2618L328.75 52.1025L341.002 29.8597L344.418 29.5247L347.053 56.3911L343.465 56.7431L341.407 35.7681L329.129 58.149L325.752 58.4802Z" fill="#212121"/>
<path d="M349.93 56.4081L349.105 29.4253L357.971 29.1542C360.502 29.0768 362.569 29.5924 364.172 30.7009C365.788 31.7961 366.629 33.4616 366.698 35.6973C366.724 36.5581 366.537 37.3934 366.138 38.203C365.738 38.9997 365.213 39.7038 364.563 40.3153C363.925 40.9264 363.257 41.3648 362.558 41.6306C364.049 42.0222 365.314 42.8002 366.353 43.9646C367.404 45.1285 367.957 46.597 368.011 48.3702C368.056 49.8221 367.729 51.1182 367.031 52.2584C366.345 53.3983 365.338 54.3165 364.009 55.013C362.692 55.6963 361.115 56.0661 359.278 56.1223L349.93 56.4081ZM353.463 53.3292L358.532 53.1742C360.523 53.1133 361.989 52.6826 362.929 51.8822C363.882 51.0814 364.334 49.8844 364.286 48.2912C364.238 46.7364 363.707 45.5695 362.693 44.7902C361.691 43.9977 360.15 43.6333 358.068 43.697L353.173 43.8467L353.463 53.3292ZM353.086 40.9942L357.731 40.8522C358.848 40.818 359.819 40.6083 360.644 40.2229C361.468 39.8376 362.095 39.304 362.524 38.6221C362.966 37.927 363.172 37.104 363.143 36.1532C363.101 34.7912 362.581 33.7654 361.583 33.0757C360.597 32.3856 359.205 32.0681 357.406 32.1231L352.819 32.2634L353.086 40.9942Z" fill="#212121"/>
<path d="M370.385 55.9669L371.369 28.9895L374.992 29.1216L374.592 40.086L388.466 40.592L388.866 29.6276L392.488 29.7597L391.504 56.7372L387.882 56.605L388.344 43.9256L374.47 43.4196L374.008 56.099L370.385 55.9669Z" fill="#212121"/>
<path d="M406.671 59.0309C404.665 58.8035 402.847 58.2415 401.215 57.3449C399.597 56.437 398.221 55.2784 397.087 53.869C395.966 52.4611 395.15 50.8679 394.641 49.0894C394.131 47.311 393.988 45.4318 394.212 43.452C394.438 41.4594 394.999 39.6535 395.894 38.0343C396.789 36.4152 397.941 35.045 399.349 33.9238C400.769 32.8041 402.369 31.9893 404.147 31.4794C405.939 30.971 407.837 30.8304 409.842 31.0578C411.835 31.2837 413.64 31.8506 415.258 32.7585C416.875 33.6664 418.251 34.8315 419.383 36.2536C420.516 37.6757 421.337 39.276 421.847 41.0545C422.371 42.8217 422.522 44.6824 422.3 46.6367C422.076 48.6165 421.51 50.4153 420.602 52.033C419.707 53.6522 418.549 55.0216 417.128 56.1413C415.707 57.261 414.107 58.0822 412.327 58.6049C410.549 59.1148 408.663 59.2568 406.671 59.0309ZM407.059 55.6013C408.503 55.7649 409.872 55.6679 411.168 55.3103C412.476 54.954 413.648 54.3689 414.685 53.555C415.723 52.7283 416.578 51.6932 417.249 50.4497C417.934 49.2077 418.366 47.7947 418.545 46.2109C418.787 44.0778 418.538 42.1672 417.798 40.479C417.07 38.7923 415.977 37.4264 414.517 36.3811C413.059 35.3231 411.372 34.6854 409.456 34.4682C408.012 34.3046 406.636 34.4072 405.326 34.7762C404.031 35.1339 402.857 35.7254 401.806 36.5506C400.77 37.3646 399.916 38.3933 399.244 39.6368C398.574 40.8675 398.149 42.2811 397.968 43.8778C397.727 45.9981 397.971 47.9016 398.698 49.5883C399.438 51.2764 400.537 52.6495 401.996 53.7075C403.456 54.7528 405.143 55.384 407.059 55.6013Z" fill="#212121"/>
<path d="M433.516 63.4042C430.776 62.8806 428.486 61.854 426.645 60.3243C424.819 58.7844 423.536 56.8705 422.795 54.5826C422.069 52.2845 421.972 49.7465 422.503 46.9687C422.886 44.9611 423.573 43.1816 424.563 41.6301C425.556 40.0661 426.783 38.7824 428.244 37.779C429.705 36.7757 431.334 36.0924 433.131 35.729C434.941 35.3681 436.837 35.3771 438.819 35.7559C440.776 36.1299 442.44 36.7031 443.811 37.4754C445.184 38.2351 446.315 39.1645 447.204 40.2637L444.753 42.8185C444.041 41.8842 443.154 41.119 442.09 40.5231C441.026 39.9271 439.806 39.4977 438.429 39.2347C436.876 38.9379 435.423 38.9087 434.068 39.1472C432.714 39.3858 431.502 39.8739 430.431 40.6117C429.376 41.3393 428.487 42.2949 427.763 43.4784C427.04 44.662 426.526 46.0493 426.222 47.6402C425.802 49.8372 425.867 51.7931 426.416 53.5078C426.978 55.2249 427.963 56.6434 429.372 57.7634C430.783 58.8707 432.556 59.6282 434.69 60.036C436.066 60.299 437.424 60.3491 438.764 60.1863C440.119 60.0134 441.441 59.5659 442.731 58.8438L443.818 62.1927C442.323 62.9669 440.717 63.4584 439.002 63.6673C437.302 63.8659 435.473 63.7782 433.516 63.4042Z" fill="#212121"/>
<path d="M448.941 66.383L454.797 43.4595L447.305 41.5459L448.13 38.3138L466.626 43.0382L465.801 46.2703L458.309 44.3567L452.454 67.2802L448.941 66.383Z" fill="#212121"/>
<path d="M461.41 69.7664L469.599 44.043L473.053 45.1427L469.772 55.4504L475.302 57.211C477.091 57.7804 478.574 58.5896 479.75 59.6388C480.94 60.6919 481.735 61.9232 482.136 63.3325C482.554 64.7335 482.505 66.2424 481.99 67.8593C481.596 69.0965 481.045 70.1285 480.337 70.9552C479.628 71.782 478.771 72.3993 477.764 72.8073C476.773 73.207 475.656 73.3908 474.411 73.3589C473.167 73.327 471.804 73.0751 470.321 72.6033L461.41 69.7664ZM465.83 67.8344L471.397 69.6067C473.197 70.1799 474.709 70.2428 475.93 69.7953C477.164 69.3517 478.025 68.3643 478.512 66.8332C478.988 65.3388 478.85 64.0133 478.099 62.8567C477.359 61.704 476.126 60.8527 474.399 60.3029L468.795 58.5188L465.83 67.8344Z" fill="#212121"/>
<path d="M532.029 100.258L546.164 77.2586L553.721 81.9029C555.878 83.2288 557.322 84.7952 558.053 86.602C558.801 88.4047 558.589 90.2588 557.418 92.1644C556.967 92.8982 556.352 93.4936 555.573 93.9505C554.801 94.3964 553.976 94.6963 553.097 94.8501C552.229 95.0106 551.429 95.0098 550.699 94.8477C551.73 95.9941 552.359 97.3391 552.587 98.8826C552.827 100.433 552.482 101.964 551.553 103.475C550.792 104.713 549.807 105.616 548.597 106.185C547.399 106.761 546.052 106.975 544.559 106.827C543.084 106.674 541.563 106.117 539.997 105.154L532.029 100.258ZM536.672 99.626L540.993 102.281C542.691 103.325 544.152 103.77 545.377 103.618C546.613 103.472 547.649 102.72 548.483 101.362C549.298 100.037 549.495 98.7703 549.076 97.5621C548.675 96.3496 547.587 95.1982 545.812 94.1078L541.64 91.5434L536.672 99.626ZM543.134 89.1121L547.093 91.5452C548.046 92.1308 548.973 92.489 549.873 92.6199C550.773 92.7507 551.59 92.6492 552.323 92.3152C553.074 91.9771 553.699 91.4028 554.197 90.5923C554.91 89.4314 555.039 88.2886 554.584 87.1637C554.14 86.0456 553.151 85.0154 551.617 84.0731L547.708 81.6702L543.134 89.1121Z" fill="#212121"/>
<path d="M559.227 118.511C557.588 117.332 556.276 115.953 555.29 114.373C554.323 112.791 553.689 111.108 553.388 109.324C553.098 107.548 553.165 105.759 553.589 103.958C554.013 102.157 554.807 100.448 555.971 98.8306C557.142 97.2025 558.513 95.9009 560.085 94.9257C561.658 93.9505 563.332 93.3179 565.108 93.0277C566.895 92.7451 568.689 92.816 570.489 93.2402C572.301 93.672 574.026 94.4771 575.664 95.6555C577.292 96.8264 578.59 98.2031 579.558 99.7858C580.525 101.369 581.156 103.057 581.449 104.851C581.742 106.645 581.676 108.443 581.252 110.244C580.846 112.042 580.068 113.739 578.92 115.336C577.756 116.953 576.383 118.246 574.801 119.214C573.228 120.189 571.549 120.818 569.762 121.1C567.976 121.383 566.178 121.317 564.37 120.903C562.569 120.479 560.855 119.682 559.227 118.511ZM561.242 115.709C562.421 116.557 563.663 117.141 564.968 117.462C566.284 117.791 567.593 117.853 568.895 117.65C570.205 117.436 571.456 116.951 572.65 116.194C573.854 115.445 574.921 114.423 575.852 113.129C577.105 111.386 577.821 109.597 578.001 107.763C578.19 105.936 577.904 104.21 577.141 102.584C576.386 100.949 575.225 99.5678 573.66 98.4419C572.481 97.5938 571.23 97.0107 569.907 96.6925C568.602 96.3715 567.289 96.3142 565.969 96.5206C564.666 96.7241 563.419 97.2042 562.225 97.961C561.039 98.7073 559.977 99.7327 559.039 101.037C557.793 102.77 557.075 104.549 556.885 106.376C556.706 108.211 556.994 109.946 557.749 111.582C558.512 113.207 559.676 114.583 561.242 115.709Z" fill="#212121"/>
<path d="M582.132 135.508C579.998 133.711 578.502 131.695 577.645 129.46C576.806 127.224 576.623 124.927 577.096 122.569C577.587 120.21 578.743 117.949 580.565 115.786C581.882 114.222 583.351 113.006 584.974 112.137C586.605 111.259 588.303 110.739 590.068 110.579C591.833 110.419 593.588 110.619 595.333 111.182C597.088 111.752 598.738 112.687 600.281 113.987C601.805 115.271 602.976 116.585 603.794 117.929C604.62 119.263 605.152 120.627 605.39 122.02L602.002 123.05C601.838 121.887 601.438 120.785 600.802 119.745C600.165 118.705 599.311 117.733 598.239 116.831C597.03 115.812 595.776 115.076 594.478 114.621C593.181 114.167 591.884 113.999 590.59 114.119C589.314 114.238 588.071 114.636 586.861 115.315C585.651 115.993 584.524 116.952 583.481 118.191C582.04 119.902 581.14 121.639 580.78 123.403C580.43 125.176 580.595 126.895 581.276 128.561C581.966 130.217 583.141 131.745 584.803 133.144C585.875 134.047 587.035 134.755 588.283 135.268C589.549 135.78 590.921 136.037 592.399 136.038L591.71 139.491C590.026 139.434 588.386 139.078 586.787 138.421C585.208 137.762 583.656 136.791 582.132 135.508Z" fill="#212121"/>
<path d="M590.095 141.417L606.114 137.595L609.179 122.318L612.291 125.314L609.822 137.525L622.292 134.943L625.292 137.832L609.701 141.209L606.778 157.479L603.652 154.47L606.047 141.224L593.123 144.333L590.095 141.417Z" fill="#212121"/>
<path d="M607.269 158.189L627.309 140.102L629.725 142.779L614.18 156.809L639.35 153.443L641.65 155.991L621.609 174.078L619.193 171.401L634.839 157.281L609.543 160.708L607.269 158.189Z" fill="#212121"/>
<path d="M639.237 208.56L644.736 204.418L643.053 202.185L645.718 200.178L649.453 205.137L641.29 211.286L639.237 208.56ZM623.495 176.216L645.058 159.975L647.239 162.871L628.34 177.105L635.44 186.531L654.338 172.297L656.519 175.193L637.621 189.427L644.697 198.822L663.596 184.588L665.777 187.484L644.213 203.725L623.495 176.216Z" fill="#212121"/>
<path d="M647.138 207.151L670.599 193.798L678.974 208.511L676.158 210.114L669.577 198.551L662.589 202.528L668.321 212.6L665.623 214.135L659.891 204.064L651.763 208.69L658.402 220.353L655.57 221.965L647.138 207.151Z" fill="#212121"/>
<path d="M656.554 223.414L680.322 210.613L682.041 213.805L672.381 219.008L678.964 231.231L688.624 226.028L690.343 229.22L666.576 242.021L664.857 238.829L676.027 232.813L669.444 220.589L658.273 226.606L656.554 223.414Z" fill="#212121"/>
<path d="M666.508 243.99L691.151 232.969L692.623 236.261L673.507 244.81L698.488 249.374L699.89 252.507L675.247 263.529L673.774 260.237L693.014 251.633L667.894 247.088L666.508 243.99Z" fill="#212121"/>
<path d="M676.097 266.246L701.421 256.895L707.285 272.777L704.246 273.899L699.637 261.418L692.094 264.203L696.109 275.075L693.196 276.15L689.182 265.279L680.409 268.518L685.058 281.108L682.001 282.237L676.097 266.246Z" fill="#212121"/>
<path d="M696.101 316.414L722.412 310.375L724.522 319.565C724.944 321.407 725.004 323.101 724.699 324.648C724.395 326.195 723.738 327.5 722.729 328.563C721.735 329.635 720.412 330.361 718.758 330.74C717.066 331.128 715.553 331.087 714.218 330.615C712.883 330.143 711.748 329.276 710.812 328.014C709.888 326.748 709.197 325.113 708.737 323.109L707.455 317.527L696.912 319.947L696.101 316.414ZM710.556 316.815L711.863 322.51C712.286 324.352 713.001 325.685 714.008 326.509C715.017 327.345 716.305 327.584 717.872 327.224C719.4 326.873 720.471 326.08 721.084 324.845C721.701 323.622 721.806 322.127 721.4 320.36L720.085 314.628L710.556 316.815Z" fill="#212121"/>
<path d="M699.879 331.059L728.271 337.021L728.899 340.728L704.115 356.039L703.432 352.009L709.656 348.235L707.645 336.372L700.543 334.975L699.879 331.059ZM710.933 336.851L712.597 346.661L724.141 339.54L710.933 336.851Z" fill="#212121"/>
<path d="M705.215 377.985L728.841 376.732L728.24 365.39L723.349 365.65C720.024 365.826 717.237 365.82 714.987 365.63C712.737 365.453 710.903 365.087 709.483 364.532C708.063 363.976 706.954 363.211 706.156 362.237C705.358 361.262 704.747 360.059 704.323 358.627L707.123 357.165C707.454 358.319 707.922 359.253 708.526 359.968C709.131 360.695 710.01 361.241 711.162 361.604C712.315 361.981 713.859 362.201 715.793 362.266C717.728 362.344 720.185 362.303 723.163 362.145L731.385 361.709L732.365 380.175L705.407 381.605L705.215 377.985ZM697.245 357.689L707.123 357.165L707.094 359.908L707.673 361.345L708.965 385.703L698.76 386.245L698.579 382.837L705.453 382.472L704.3 360.733L697.426 361.097L697.245 357.689Z" fill="#212121"/>
<path d="M703.056 398.954C703.107 396.936 703.507 395.075 704.257 393.371C705.019 391.68 706.052 390.207 707.357 388.954C708.661 387.714 710.176 386.761 711.903 386.097C713.63 385.433 715.489 385.126 717.481 385.176C719.486 385.226 721.334 385.626 723.025 386.375C724.717 387.125 726.183 388.152 727.423 389.456C728.663 390.773 729.616 392.295 730.28 394.021C730.943 395.761 731.25 397.64 731.2 399.657C731.149 401.662 730.743 403.51 729.981 405.201C729.218 406.892 728.179 408.364 726.861 409.617C725.544 410.87 724.022 411.829 722.295 412.493C720.581 413.17 718.741 413.484 716.775 413.435C714.783 413.385 712.941 412.979 711.25 412.217C709.558 411.467 708.093 410.434 706.853 409.117C705.612 407.8 704.654 406.278 703.977 404.551C703.313 402.824 703.006 400.958 703.056 398.954ZM706.507 399.04C706.47 400.492 706.687 401.848 707.157 403.107C707.627 404.379 708.313 405.495 709.214 406.456C710.129 407.418 711.235 408.179 712.533 408.738C713.83 409.311 715.275 409.617 716.869 409.657C719.015 409.711 720.896 409.295 722.513 408.409C724.129 407.537 725.394 406.327 726.307 404.781C727.233 403.236 727.72 401.499 727.768 399.571C727.805 398.119 727.582 396.757 727.099 395.485C726.629 394.226 725.937 393.109 725.022 392.135C724.121 391.173 723.021 390.413 721.723 389.853C720.439 389.294 718.993 388.994 717.387 388.954C715.253 388.901 713.379 389.31 711.762 390.183C710.146 391.068 708.874 392.284 707.948 393.829C707.035 395.375 706.555 397.112 706.507 399.04Z" fill="#212121"/>
<path d="M700.987 427.125C701.268 424.35 702.089 421.978 703.451 420.01C704.825 418.056 706.619 416.61 708.833 415.671C711.058 414.746 713.578 414.426 716.392 414.711C718.425 414.917 720.258 415.445 721.891 416.295C723.536 417.147 724.922 418.256 726.05 419.624C727.178 420.991 728.001 422.554 728.521 424.312C729.039 426.083 729.197 427.973 728.994 429.981C728.793 431.963 728.368 433.671 727.719 435.104C727.083 436.538 726.256 437.747 725.239 438.729L722.479 436.511C723.348 435.721 724.032 434.769 724.532 433.657C725.032 432.545 725.353 431.292 725.494 429.898C725.653 428.324 725.555 426.874 725.198 425.546C724.842 424.217 724.249 423.053 723.42 422.051C722.603 421.064 721.573 420.262 720.33 419.645C719.088 419.029 717.661 418.639 716.049 418.475C713.824 418.25 711.881 418.486 710.221 419.184C708.56 419.894 707.234 421 706.242 422.502C705.263 424.005 704.664 425.837 704.445 427.999C704.304 429.393 704.373 430.75 704.653 432.07C704.944 433.405 705.506 434.683 706.338 435.904L703.098 437.281C702.195 435.859 701.565 434.303 701.206 432.613C700.859 430.937 700.786 429.107 700.987 427.125Z" fill="#212121"/>
<path d="M698.997 443.203L722.265 447.49L723.666 439.885L726.947 440.49L723.488 459.263L720.207 458.659L721.608 451.055L698.34 446.768L698.997 443.203Z" fill="#212121"/>
<path d="M697.029 454.857L723.367 460.78L722.572 464.316L712.018 461.943L710.745 467.606C710.333 469.437 709.656 470.984 708.713 472.248C707.767 473.524 706.61 474.423 705.24 474.946C703.881 475.483 702.374 475.566 700.718 475.194C699.451 474.909 698.375 474.45 697.49 473.816C696.605 473.182 695.915 472.381 695.421 471.414C694.937 470.462 694.657 469.364 694.581 468.122C694.504 466.879 694.637 465.499 694.978 463.982L697.029 454.857ZM699.338 459.092L698.057 464.792C697.642 466.636 697.711 468.147 698.263 469.325C698.812 470.516 699.87 471.288 701.438 471.64C702.968 471.984 704.277 471.731 705.364 470.882C706.448 470.046 707.188 468.743 707.586 466.975L708.876 461.237L699.338 459.092Z" fill="#212121"/>
<path d="M45.3809 451.527L18.8788 456.664L14.8572 435.917L41.3593 430.78L42.0491 434.339L18.8219 438.841L21.4639 452.471L44.691 447.968L45.3809 451.527Z" fill="#212121"/>
<path d="M41.1497 427.929L14.3678 431.317L12.243 414.521L15.4568 414.114L17.1266 427.314L25.1038 426.305L23.6494 414.808L26.7293 414.418L28.1837 425.915L37.4617 424.741L35.7774 411.427L39.0103 411.018L41.1497 427.929Z" fill="#212121"/>
<path d="M37.8897 392.924L26.6702 393.63C27.0524 394.791 27.3688 395.93 27.6194 397.048C27.8693 398.153 28.0354 399.36 28.1177 400.668C28.2485 402.747 28.0263 404.538 27.4512 406.043C26.8752 407.534 25.9058 408.71 24.543 409.568C23.1666 410.415 21.3365 410.91 19.0528 411.053L12.0094 411.497L11.7818 407.879L18.2864 407.469C20.7881 407.312 22.5171 406.643 23.4732 405.462C24.4286 404.269 24.8392 402.607 24.7053 400.477C24.6205 399.13 24.4749 397.941 24.2684 396.911C24.0611 395.868 23.8032 394.841 23.4949 393.83L10.9476 394.619L10.72 391.001L37.6621 389.306L37.8897 392.924Z" fill="#212121"/>
<path d="M37.6814 389.182L10.7289 378.449L10.744 374.689L37.7831 363.845L37.7667 367.933L30.9879 370.586L30.9396 382.618L37.6973 385.21L37.6814 389.182ZM27.7814 381.584L27.8213 371.634L15.2289 376.674L27.7814 381.584Z" fill="#212121"/>
<path d="M38.4333 361.762L34.998 362.976C34.7926 362.098 34.5141 361.336 34.1624 360.691C33.7979 360.045 33.2917 359.485 32.6437 359.012C31.9957 358.538 31.1231 358.138 30.0259 357.812C28.9287 357.485 27.5378 357.208 25.8532 356.98C24.1696 356.738 22.1164 356.528 19.6935 356.348L11.3864 355.73L12.7482 337.405L39.6693 339.405L39.4007 343.021L15.8062 341.267L14.9731 352.478L19.8574 352.841C22.6521 353.049 25.0495 353.311 27.0498 353.627C29.0501 353.943 30.7223 354.338 32.0664 354.812C33.4114 355.273 34.5043 355.831 35.345 356.486C36.1867 357.129 36.8458 357.887 37.3223 358.76C37.7988 359.633 38.1691 360.634 38.4333 361.762Z" fill="#212121"/>
<path d="M39.684 337.501L12.9566 333.707L13.4661 330.118L24.1762 331.638L24.9919 325.892C25.2557 324.034 25.807 322.437 26.6457 321.102C27.4863 319.754 28.568 318.765 29.8909 318.135C31.2029 317.49 32.6989 317.287 34.379 317.525C35.6644 317.708 36.7737 318.08 37.7068 318.641C38.6399 319.201 39.3914 319.944 39.9612 320.869C40.5201 321.78 40.8874 322.851 41.063 324.083C41.2386 325.316 41.2171 326.702 40.9984 328.242L39.684 337.501ZM37.0435 333.465L37.8647 327.68C38.1303 325.809 37.9408 324.309 37.2963 323.179C36.6535 322.036 35.5367 321.351 33.9458 321.125C32.3931 320.905 31.109 321.261 30.0936 322.195C29.0799 323.116 28.4457 324.473 28.191 326.268L27.3644 332.091L37.0435 333.465Z" fill="#212121"/>
<path d="M583.832 681.473L580.614 679.766C581.122 679.02 581.494 678.299 581.731 677.604C581.96 676.898 582.029 676.147 581.939 675.349C581.849 674.552 581.553 673.639 581.051 672.61C580.549 671.581 579.812 670.37 578.84 668.975C577.878 667.572 576.644 665.918 575.136 664.012L569.969 657.479L584.382 646.08L601.128 667.253L598.285 669.502L583.608 650.945L574.791 657.918L577.829 661.76C579.568 663.958 580.997 665.9 582.118 667.587C583.239 669.273 584.08 670.772 584.641 672.082C585.212 673.384 585.54 674.566 585.627 675.629C585.723 676.683 585.611 677.682 585.291 678.623C584.97 679.565 584.484 680.515 583.832 681.473Z" fill="#212121"/>
<path d="M604.4 664.521L585.674 645.076L588.286 642.561L595.896 650.464L601.827 644.753L604.141 647.156L598.21 652.867L607.011 662.006L604.4 664.521ZM622.038 648.339C620.593 649.73 619.005 650.768 617.274 651.454C615.534 652.13 613.764 652.451 611.965 652.417C610.165 652.383 608.413 652 606.709 651.268C605.014 650.527 603.475 649.439 602.093 648.004C600.702 646.559 599.668 644.976 598.991 643.254C598.324 641.523 598.007 639.758 598.041 637.959C598.075 636.159 598.467 634.407 599.218 632.703C599.968 630.999 601.065 629.451 602.51 628.06C603.954 626.669 605.542 625.64 607.273 624.973C609.013 624.296 610.787 623.98 612.596 624.023C614.413 624.057 616.17 624.445 617.865 625.186C619.561 625.909 621.09 626.979 622.455 628.396C623.837 629.831 624.862 631.414 625.529 633.145C626.206 634.867 626.522 636.632 626.479 638.44C626.445 640.24 626.058 641.996 625.316 643.71C624.575 645.405 623.482 646.948 622.038 648.339ZM619.644 645.853C620.69 644.845 621.488 643.728 622.039 642.502C622.598 641.267 622.895 639.991 622.929 638.673C622.963 637.338 622.716 636.015 622.186 634.705C621.656 633.394 620.838 632.165 619.732 631.017C618.243 629.471 616.613 628.445 614.84 627.938C613.077 627.423 611.327 627.395 609.591 627.853C607.856 628.293 606.289 629.186 604.891 630.533C603.854 631.531 603.06 632.653 602.509 633.897C601.949 635.132 601.657 636.413 601.632 637.74C601.598 639.057 601.841 640.376 602.362 641.695C602.883 642.996 603.701 644.225 604.815 645.382C606.295 646.919 607.922 647.941 609.694 648.447C611.466 648.953 613.22 648.986 614.956 648.546C616.692 648.088 618.255 647.19 619.644 645.853Z" fill="#212121"/>
<path d="M633.686 636.241L613.275 618.573L624.078 606.093L626.527 608.213L618.097 617.952L624.206 623.24L627.601 619.318C629.468 617.16 631.476 615.863 633.622 615.426C635.768 614.97 637.807 615.58 639.741 617.254C641.015 618.356 641.845 619.577 642.233 620.916C642.62 622.237 642.58 623.639 642.112 625.121C641.644 626.586 640.749 628.081 639.428 629.607L633.686 636.241ZM633.813 631.556L637.145 627.707C638.382 626.279 639.022 624.911 639.064 623.605C639.107 622.299 638.535 621.132 637.349 620.106C636.212 619.121 634.972 618.728 633.628 618.925C632.283 619.104 631.026 619.869 629.856 621.22L626.436 625.171L633.813 631.556Z" fill="#212121"/>
<path d="M653.593 609.91C652.389 611.53 650.99 612.82 649.395 613.781C647.797 614.724 646.104 615.332 644.316 615.604C642.535 615.867 640.748 615.771 638.954 615.319C637.16 614.867 635.464 614.046 633.864 612.858C632.255 611.661 630.975 610.27 630.024 608.682C629.074 607.095 628.468 605.411 628.205 603.631C627.951 601.84 628.05 600.047 628.502 598.253C628.962 596.449 629.794 594.737 630.998 593.117C632.194 591.508 633.591 590.231 635.189 589.289C636.786 588.346 638.484 587.742 640.283 587.477C642.082 587.212 643.878 587.306 645.672 587.758C647.463 588.193 649.148 588.996 650.727 590.17C652.326 591.358 653.597 592.751 654.54 594.349C655.49 595.936 656.093 597.625 656.347 599.416C656.602 601.207 656.508 603.003 656.066 604.805C655.614 606.599 654.789 608.301 653.593 609.91ZM650.823 607.851C651.689 606.685 652.293 605.453 652.635 604.153C652.984 602.843 653.067 601.535 652.884 600.23C652.69 598.917 652.225 597.658 651.487 596.452C650.756 595.237 649.751 594.154 648.472 593.203C646.749 591.922 644.972 591.178 643.14 590.97C641.317 590.752 639.586 591.011 637.949 591.749C636.302 592.478 634.903 593.617 633.753 595.164C632.886 596.33 632.284 597.572 631.945 598.89C631.603 600.19 631.525 601.501 631.711 602.825C631.894 604.13 632.355 605.385 633.093 606.59C633.82 607.788 634.829 608.866 636.119 609.824C637.832 611.097 639.6 611.843 641.424 612.061C643.255 612.269 644.994 612.008 646.642 611.279C648.279 610.541 649.673 609.399 650.823 607.851Z" fill="#212121"/>
<path d="M662.701 594.783L639.888 580.35L644.63 572.854C645.984 570.714 647.569 569.291 649.385 568.584C651.198 567.86 653.049 568.095 654.939 569.291C655.667 569.752 656.254 570.374 656.701 571.159C657.137 571.936 657.426 572.766 657.568 573.647C657.717 574.517 657.706 575.316 657.535 576.044C658.694 575.029 660.047 574.417 661.594 574.209C663.147 573.99 664.673 574.354 666.172 575.303C667.4 576.079 668.29 577.076 668.844 578.294C669.404 579.5 669.6 580.849 669.433 582.34C669.261 583.813 668.684 585.327 667.701 586.88L662.701 594.783ZM662.13 590.132L664.841 585.846C665.906 584.163 666.371 582.707 666.234 581.48C666.105 580.242 665.367 579.197 664.02 578.345C662.705 577.513 661.441 577.299 660.228 577.702C659.01 578.088 657.845 579.161 656.731 580.921L654.113 585.06L662.13 590.132ZM651.701 583.534L654.185 579.607C654.783 578.662 655.154 577.74 655.296 576.841C655.439 575.943 655.348 575.125 655.024 574.387C654.695 573.632 654.129 573 653.325 572.491C652.174 571.763 651.033 571.619 649.902 572.06C648.778 572.489 647.735 573.465 646.773 574.986L644.319 578.864L651.701 583.534Z" fill="#212121"/>
<path d="M673.678 575.295L649.977 562.372L651.712 559.189L661.21 564.368L663.988 559.272C664.886 557.624 665.962 556.322 667.216 555.365C668.475 554.398 669.835 553.851 671.295 553.724C672.75 553.58 674.222 553.915 675.712 554.727C676.852 555.348 677.761 556.085 678.438 556.938C679.115 557.79 679.558 558.749 679.768 559.815C679.972 560.864 679.941 561.996 679.673 563.212C679.406 564.427 678.899 565.718 678.155 567.084L673.678 575.295ZM672.62 570.589L675.417 565.459C676.321 563.8 676.67 562.328 676.463 561.044C676.261 559.748 675.455 558.716 674.044 557.947C672.667 557.196 671.34 557.08 670.062 557.598C668.79 558.105 667.72 559.154 666.852 560.746L664.037 565.909L672.62 570.589Z" fill="#212121"/>
<path d="M65.5667 582.237C64.0927 579.868 63.2932 577.489 63.1683 575.099C63.0611 572.713 63.5968 570.472 64.7753 568.375C65.9716 566.283 67.7702 564.49 70.1713 562.996C71.9066 561.916 73.68 561.213 75.4915 560.888C77.314 560.557 79.0894 560.587 80.8179 560.98C82.5463 561.373 84.1535 562.107 85.6394 563.18C87.1322 564.265 88.4117 565.664 89.4782 567.378C90.531 569.069 91.2385 570.681 91.6008 572.212C91.974 573.736 92.0585 575.197 91.8541 576.596L88.3142 576.528C88.518 575.372 88.478 574.2 88.1941 573.014C87.9102 571.828 87.3981 570.641 86.6577 569.451C85.8222 568.109 84.8575 567.021 83.7635 566.188C82.6696 565.354 81.4885 564.795 80.2205 564.509C78.9701 564.227 77.6647 564.222 76.3043 564.493C74.9439 564.765 73.5761 565.328 72.201 566.184C70.302 567.366 68.9088 568.74 68.0215 570.307C67.141 571.884 66.7672 573.571 66.9 575.366C67.0438 577.154 67.6897 578.97 68.8376 580.814C69.578 582.004 70.4624 583.036 71.4909 583.91C72.5371 584.788 73.7629 585.456 75.1682 585.914L73.4455 588.984C71.8619 588.41 70.4116 587.564 69.0947 586.446C67.7955 585.331 66.6195 583.928 65.5667 582.237Z" fill="#212121"/>
<path d="M76.1399 599.218L95.3686 585.433L90.8634 579.149L93.5745 577.205L104.697 592.72L101.986 594.663L97.4807 588.379L78.252 602.164L76.1399 599.218Z" fill="#212121"/>
<path d="M85.429 611.531L106.368 594.493L112.319 601.806C113.512 603.272 114.313 604.766 114.723 606.288C115.134 607.811 115.121 609.272 114.685 610.67C114.267 612.071 113.4 613.307 112.083 614.378C110.737 615.474 109.361 616.104 107.955 616.271C106.549 616.437 105.148 616.161 103.75 615.441C102.363 614.714 101.02 613.553 99.7221 611.958L96.1075 607.516L87.717 614.343L85.429 611.531ZM98.5752 605.507L102.263 610.039C103.456 611.505 104.686 612.385 105.953 612.68C107.228 612.984 108.489 612.629 109.736 611.615C110.952 610.625 111.563 609.441 111.567 608.061C111.58 606.692 111.014 605.304 109.87 603.899L106.158 599.337L98.5752 605.507Z" fill="#212121"/>
<path d="M96.3596 624.946L123.388 614.406L125.942 617.166L113.57 643.541L110.794 640.541L113.94 633.976L105.767 625.146L99.0578 627.861L96.3596 624.946ZM108.782 623.748L115.54 631.05L121.309 618.774L108.782 623.748Z" fill="#212121"/>
<path d="M114.243 644.657L130.112 640.251L132.616 624.872L135.835 627.752L133.814 640.046L146.182 637.01L149.286 639.787L133.828 643.732L131.501 660.098L128.268 657.205L130.177 643.88L117.375 647.459L114.243 644.657Z" fill="#212121"/>
<path d="M243.114 723.901L253.554 699.006L273.322 706.479L262.882 731.374L259.491 730.092L268.641 708.274L255.655 703.364L246.505 725.183L243.114 723.901Z" fill="#212121"/>
<path d="M265.388 731.953L283.37 708.824L287.002 709.794L289.867 738.489L285.918 737.434L285.263 730.257L273.638 727.153L269.226 732.977L265.388 731.953ZM275.529 724.386L285.142 726.953L283.818 713.592L275.529 724.386Z" fill="#212121"/>
<path d="M303.464 741.669C300.727 741.13 298.455 740.093 296.648 738.558C294.856 737.013 293.619 735.099 292.937 732.817C292.27 730.524 292.241 727.997 292.849 725.235C293.288 723.239 294.025 721.472 295.061 719.933C296.1 718.383 297.366 717.113 298.861 716.123C300.355 715.134 302.009 714.464 303.823 714.114C305.649 713.767 307.553 713.788 309.533 714.178C311.488 714.563 313.143 715.144 314.499 715.922C315.857 716.687 316.967 717.62 317.831 718.72L315.301 721.248C314.611 720.313 313.741 719.545 312.688 718.945C311.636 718.345 310.423 717.909 309.048 717.639C307.497 717.333 306.038 717.295 304.672 717.523C303.305 717.752 302.075 718.23 300.981 718.958C299.902 719.675 298.983 720.621 298.225 721.794C297.466 722.968 296.913 724.346 296.565 725.927C296.084 728.112 296.097 730.06 296.602 731.77C297.12 733.483 298.071 734.902 299.455 736.026C300.842 737.138 302.602 737.903 304.733 738.323C306.108 738.594 307.47 738.653 308.82 738.499C310.185 738.336 311.525 737.899 312.839 737.189L313.841 740.53C312.318 741.291 310.693 741.769 308.965 741.966C307.253 742.153 305.419 742.054 303.464 741.669Z" fill="#212121"/>
<path d="M327.928 745.432C325.161 745.078 322.82 744.196 320.905 742.785C319.004 741.363 317.629 739.535 316.779 737.302C315.944 735.057 315.726 732.535 316.126 729.735C316.415 727.712 317.018 725.897 317.935 724.291C318.855 722.672 320.022 721.318 321.436 720.228C322.851 719.139 324.449 718.359 326.231 717.886C328.025 717.416 329.923 717.308 331.925 717.564C333.901 717.817 335.593 718.286 337.002 718.971C338.412 719.643 339.588 720.5 340.53 721.54L338.198 724.236C337.442 723.349 336.517 722.641 335.424 722.112C334.331 721.584 333.089 721.231 331.699 721.054C330.131 720.853 328.675 720.913 327.33 721.234C325.986 721.555 324.796 722.115 323.76 722.916C322.738 723.706 321.894 724.712 321.226 725.935C320.558 727.159 320.109 728.572 319.88 730.176C319.564 732.39 319.722 734.334 320.353 736.009C320.996 737.685 322.05 739.038 323.513 740.067C324.978 741.083 326.788 741.729 328.943 742.004C330.333 742.182 331.694 742.149 333.027 741.904C334.375 741.649 335.677 741.122 336.934 740.323L338.181 743.593C336.721 744.456 335.137 745.044 333.431 745.357C331.738 745.659 329.904 745.684 327.928 745.432Z" fill="#212121"/>
<path d="M340.93 746.259L342.631 719.317L346.231 719.521L344.911 740.42L360.574 720.332L364.001 720.526L362.299 747.467L358.699 747.264L360.028 726.23L344.318 746.451L340.93 746.259Z" fill="#212121"/>
<path d="M367.687 747.422L367.368 720.429L376.238 720.335C378.77 720.308 380.827 720.865 382.409 722.005C384.003 723.132 384.814 724.814 384.84 727.051C384.851 727.912 384.648 728.743 384.233 729.545C383.819 730.333 383.28 731.027 382.619 731.625C381.97 732.224 381.294 732.648 380.59 732.9C382.073 733.322 383.323 734.125 384.34 735.31C385.37 736.494 385.895 737.974 385.916 739.747C385.933 741.2 385.582 742.489 384.862 743.615C384.156 744.741 383.131 745.639 381.79 746.309C380.46 746.966 378.877 747.304 377.038 747.323L367.687 747.422ZM371.277 744.414L376.348 744.361C378.34 744.34 379.814 743.939 380.769 743.157C381.737 742.376 382.211 741.188 382.192 739.594C382.174 738.039 381.665 736.861 380.666 736.062C379.679 735.25 378.145 734.854 376.062 734.876L371.165 734.928L371.277 744.414ZM371.131 732.075L375.778 732.025C376.896 732.014 377.871 731.823 378.702 731.455C379.534 731.086 380.17 730.565 380.612 729.892C381.067 729.206 381.289 728.387 381.277 727.436C381.261 726.073 380.761 725.037 379.775 724.328C378.803 723.618 377.417 723.273 375.617 723.292L371.028 723.34L371.131 732.075Z" fill="#212121"/>
<path d="M390.459 746.947L388.132 720.052L391.746 719.772L392.692 730.703L406.533 729.631L405.588 718.7L409.202 718.42L411.529 745.315L407.915 745.595L406.821 732.954L392.979 734.026L394.073 746.667L390.459 746.947Z" fill="#212121"/>
<path d="M429.463 743.23C427.469 743.54 425.56 743.479 423.737 743.047C421.924 742.6 420.274 741.849 418.786 740.792C417.311 739.734 416.077 738.417 415.086 736.841C414.095 735.265 413.429 733.496 413.088 731.532C412.745 729.557 412.777 727.672 413.183 725.879C413.589 724.086 414.312 722.465 415.351 721.015C416.404 719.564 417.714 718.359 419.283 717.4C420.864 716.439 422.652 715.803 424.646 715.493C426.628 715.185 428.525 715.254 430.337 715.701C432.15 716.148 433.801 716.905 435.291 717.975C436.782 719.044 438.022 720.366 439.013 721.942C440.015 723.503 440.684 725.253 441.021 727.191C441.362 729.154 441.323 731.033 440.904 732.828C440.498 734.621 439.768 736.243 438.716 737.695C437.663 739.146 436.354 740.357 434.788 741.329C433.219 742.289 431.444 742.922 429.463 743.23ZM428.872 739.829C430.308 739.606 431.598 739.152 432.745 738.467C433.904 737.779 434.868 736.907 435.637 735.851C436.404 734.783 436.935 733.562 437.232 732.189C437.541 730.814 437.559 729.342 437.286 727.771C436.919 725.656 436.142 723.884 434.954 722.456C433.78 721.026 432.343 720 430.644 719.38C428.942 718.747 427.139 718.578 425.233 718.875C423.798 719.098 422.502 719.559 421.345 720.259C420.199 720.945 419.236 721.823 418.456 722.894C417.687 723.95 417.155 725.164 416.858 726.537C416.56 727.897 416.548 729.369 416.823 730.952C417.188 733.054 417.958 734.821 419.132 736.251C420.319 737.679 421.764 738.71 423.465 739.343C425.165 739.964 426.967 740.126 428.872 739.829Z" fill="#212121"/>
<path d="M460.038 737.165C457.322 737.802 454.797 737.8 452.464 737.16C450.14 736.504 448.147 735.289 446.486 733.514C444.835 731.723 443.65 729.46 442.933 726.725C442.415 724.748 442.27 722.854 442.5 721.045C442.727 719.223 443.287 717.56 444.181 716.057C445.076 714.553 446.261 713.272 447.737 712.213C449.226 711.151 450.952 710.389 452.917 709.928C454.857 709.473 456.616 709.318 458.195 709.462C459.771 709.594 461.2 709.978 462.483 710.614L461.358 713.927C460.309 713.368 459.172 713.034 457.947 712.925C456.723 712.817 455.429 712.922 454.065 713.243C452.526 713.604 451.192 714.167 450.065 714.934C448.937 715.7 448.046 716.635 447.392 717.739C446.748 718.827 446.352 720.055 446.206 721.423C446.06 722.79 446.192 724.257 446.603 725.824C447.17 727.988 448.073 729.736 449.313 731.068C450.565 732.398 452.073 733.285 453.836 733.729C455.597 734.161 457.535 734.129 459.65 733.632C461.014 733.312 462.269 732.806 463.417 732.115C464.573 731.408 465.581 730.465 466.441 729.286L468.876 731.883C467.851 733.193 466.604 734.291 465.136 735.176C463.677 736.047 461.977 736.709 460.038 737.165Z" fill="#212121"/>
<path d="M479.277 731.075L470.752 709.005L463.453 711.558L462.251 708.446L480.27 702.142L481.472 705.254L474.173 707.807L482.698 729.878L479.277 731.075Z" fill="#212121"/>
<path d="M492.473 726.249L481.434 701.614L484.795 700.256L489.219 710.128L494.6 707.954C496.341 707.252 498.01 706.924 499.607 706.971C501.217 707.014 502.647 707.44 503.897 708.252C505.154 709.046 506.13 710.218 506.824 711.766C507.355 712.951 507.628 714.08 507.645 715.154C507.662 716.228 507.425 717.238 506.934 718.185C506.45 719.115 505.724 719.962 504.758 720.726C503.791 721.491 502.587 722.164 501.144 722.747L492.473 726.249ZM494.533 721.988L499.951 719.8C501.703 719.092 502.893 718.182 503.52 717.07C504.16 715.952 504.151 714.661 503.494 713.194C502.853 711.763 501.859 710.848 500.512 710.45C499.177 710.047 497.669 710.185 495.989 710.864L490.536 713.067L494.533 721.988Z" fill="#212121"/>
</svg>
