<svg width="61" height="64" viewBox="0 0 61 64" fill="none" xmlns="http://www.w3.org/2000/svg">
<path opacity="0.5" fill-rule="evenodd" clip-rule="evenodd" d="M2.61499 12.7607C2.61499 7.2379 7.09214 2.76074 12.615 2.76074H58.6199C58.6166 2.79351 58.615 2.82673 58.615 2.86035V51.8604C58.615 57.3832 54.1378 61.8604 48.615 61.8604H2.61009C2.61333 61.8276 2.61499 61.7944 2.61499 61.7607V12.7607ZM60.615 1.76074C60.615 1.96384 60.5544 2.1528 60.4504 2.31055C60.5544 2.4683 60.615 2.65725 60.615 2.86035V61.8604C60.615 62.9649 59.7196 63.8604 58.615 63.8604H1.61499C1.0627 63.8604 0.61499 63.4126 0.61499 62.8604C0.61499 62.6573 0.675537 62.4683 0.779565 62.3106C0.675537 62.1528 0.61499 61.9638 0.61499 61.7607V2.76074C0.61499 1.65617 1.51042 0.760742 2.61499 0.760742H59.615C60.1673 0.760742 60.615 1.20846 60.615 1.76074ZM36.4342 32.7434C33.1243 35.8726 27.9469 35.8726 24.637 32.7434L16.0963 24.6689C15.7518 24.3431 15.1931 24.3431 14.8485 24.6689C14.504 24.9946 14.504 25.5228 14.8485 25.8486L30.1016 40.2692C30.2126 40.3741 30.3861 40.3741 30.497 40.2692L30.5765 40.194C30.6428 40.1313 30.7465 40.1313 30.8128 40.194C30.8791 40.2567 30.9828 40.2567 31.049 40.194L46.3817 25.6982C46.7263 25.3724 46.7263 24.8442 46.3817 24.5185C46.0371 24.1927 45.4785 24.1927 45.1339 24.5185L36.4342 32.7434Z" fill="white"/>
</svg>
