<svg width="40" height="40" viewBox="0 0 40 40" fill="none" xmlns="http://www.w3.org/2000/svg">
<path fill-rule="evenodd" clip-rule="evenodd" d="M15 20C17.7614 20 20 22.2386 20 25L20 39.5C20 39.7761 20.2239 40 20.5 40C20.7761 40 21 39.7761 21 39.5L21 25C21 22.2386 23.2386 20 26 20H39.5C39.7761 20 40 19.7761 40 19.5C40 19.2239 39.7761 19 39.5 19H26C23.2386 19 21 16.7614 21 14V0.5C21 0.223858 20.7761 0 20.5 0C20.2239 0 20 0.223858 20 0.5V14C20 16.7614 17.7614 19 15 19H0.5C0.223858 19 0 19.2239 0 19.5C0 19.7761 0.223857 20 0.5 20H15Z" fill="#212121"/>
</svg>
