<svg width="90" height="80" viewBox="0 0 90 80" fill="none" xmlns="http://www.w3.org/2000/svg">
<path d="M86.5317 3.62842V76.2882" stroke="white" stroke-width="5.75193" stroke-linecap="round"/>
<path fill-rule="evenodd" clip-rule="evenodd" d="M2.66952 0.0605469C2.76327 0.0605469 2.85523 0.0681976 2.94481 0.0829086C3.27646 0.137371 3.60235 0.254815 3.89341 0.422861V0.422861L64.0096 35.131V35.131C64.6469 35.4989 65.4063 35.9795 66.0123 36.397C66.2122 36.5347 66.3853 36.7179 66.5148 36.9421C66.9804 37.7485 66.704 38.7797 65.8976 39.2454L3.62189 75.2002C2.81543 75.6659 1.78422 75.3895 1.31861 74.5831C1.29308 74.5389 1.26978 74.494 1.24868 74.4485C1.07535 74.0753 0.983398 73.655 0.983398 73.2435V73.2435L0.983402 1.74667C0.983402 0.815448 1.7383 0.0605468 2.66952 0.0605469ZM4.35564 55.4032C4.35564 62.283 11.8032 66.5828 17.7613 63.1429L48.3666 45.4729C54.3247 42.033 54.3247 33.4333 48.3666 29.9934L17.7613 12.3234C11.8032 8.88352 4.35564 13.1834 4.35564 20.0632L4.35564 55.4032Z" fill="white"/>
</svg>
