<svg width="89" height="80" viewBox="0 0 89 80" fill="none" xmlns="http://www.w3.org/2000/svg">
<g opacity="0.5">
<path d="M85.5493 3.56787V76.2277" stroke="white" stroke-width="5.75193" stroke-linecap="round"/>
<path fill-rule="evenodd" clip-rule="evenodd" d="M1.68612 0C1.77987 0 1.87183 0.00765066 1.96141 0.0223617C2.29306 0.0768244 2.61895 0.194269 2.91001 0.362315V0.362315L63.0262 35.0704V35.0704C63.6635 35.4383 64.4229 35.919 65.0289 36.3364C65.2288 36.4741 65.4019 36.6573 65.5313 36.8815C65.997 37.688 65.7206 38.7192 64.9142 39.1848L2.63849 75.1397C1.83203 75.6053 0.800818 75.329 0.335209 74.5225C0.309682 74.4783 0.286385 74.4334 0.265283 74.388C0.0919499 74.0148 0 73.5944 0 73.1829V73.1829L3.09944e-06 1.68612C3.14015e-06 0.754901 0.754904 0 1.68612 0ZM3.37224 55.3426C3.37224 62.2224 10.8198 66.5223 16.7779 63.0824L47.3833 45.4124C53.3413 41.9725 53.3413 33.3728 47.3833 29.9329L16.7779 12.2629C10.8198 8.82297 3.37224 13.1228 3.37224 20.0026L3.37224 55.3426Z" fill="white"/>
</g>
</svg>
