<svg width="71" height="106" viewBox="0 0 71 106" fill="none" xmlns="http://www.w3.org/2000/svg">
<path fill-rule="evenodd" clip-rule="evenodd" d="M23.6605 2.29842C23.6605 1.36721 22.9056 0.612305 21.9743 0.612305C21.0431 0.612305 20.2882 1.36721 20.2882 2.29842L20.2882 93.3487C20.2882 98.0048 16.5137 101.779 11.8576 101.779H2.13436C1.20314 101.779 0.448242 102.534 0.448242 103.465C0.448242 104.397 1.20314 105.152 2.13436 105.152H21.9545C21.9611 105.152 21.9677 105.152 21.9743 105.152C22.9055 105.152 23.6604 104.397 23.6604 103.466L23.6605 2.29842Z" fill="white"/>
<path fill-rule="evenodd" clip-rule="evenodd" d="M66.7122 101.779H58.6755C54.0194 101.779 50.2449 98.0048 50.2449 93.3487L50.2449 3.98454H58.2816C62.9377 3.98454 66.7122 7.75905 66.7122 12.4151L66.7122 101.779ZM48.5588 0.612305H68.3983C68.4566 0.612305 68.5141 0.615254 68.5707 0.62101C69.421 0.707356 70.0845 1.42541 70.0845 2.29842L70.0845 103.466C70.0845 104.397 69.3296 105.152 68.3984 105.152C68.3917 105.152 68.3851 105.152 68.3785 105.152H48.5787L48.5588 105.152C48.4424 105.152 48.3288 105.14 48.219 105.117C48.0703 105.087 47.9286 105.037 47.797 104.97C47.2484 104.692 46.8723 104.123 46.8723 103.465C46.8723 103.461 46.8724 103.456 46.8724 103.451C46.8725 103.444 46.8726 103.437 46.8727 103.431L46.8727 2.3327C46.8725 2.3213 46.8723 2.30987 46.8723 2.29842C46.8723 1.36721 47.6272 0.612305 48.5585 0.612305H48.5588Z" fill="white"/>
<path fill-rule="evenodd" clip-rule="evenodd" d="M3.82048 103.466L3.82048 12.4151C3.82048 7.75905 7.59499 3.98454 12.2511 3.98454H21.9742C22.9055 3.98454 23.6604 3.22964 23.6604 2.29842C23.6604 1.36721 22.9055 0.612305 21.9742 0.612305H2.13437C2.07616 0.612305 2.01865 0.615254 1.96197 0.62101C1.11173 0.707356 0.448247 1.42541 0.448247 2.29842L0.448242 103.466C0.448242 104.397 1.20314 105.152 2.13436 105.152C3.06558 105.152 3.82048 104.397 3.82048 103.466Z" fill="white"/>
</svg>
