<svg width="44" height="51" viewBox="0 0 44 51" fill="none" xmlns="http://www.w3.org/2000/svg">
<path fill-rule="evenodd" clip-rule="evenodd" d="M1 0C1.05824 0 1.11532 0.00497882 1.17083 0.0145341C1.37519 0.0497092 1.57628 0.123068 1.75586 0.226748V0.226748L42.1154 23.5283V23.5283C42.5238 23.7641 43.0631 24.1056 43.4512 24.3735C43.5695 24.4551 43.672 24.5636 43.7486 24.6963C44.0247 25.1746 43.8609 25.7862 43.3826 26.0624L1.57324 50.201C1.09495 50.4771 0.483361 50.3133 0.207219 49.835C0.191607 49.8079 0.177402 49.7805 0.16458 49.7526C0.0571541 49.5197 -1.12149e-08 49.2566 0 49V49L2.09815e-06 1C2.09815e-06 0.447715 0.447717 0 1 0ZM2 37.2529C2 41.8717 7 44.7584 11 42.449L31.9435 30.3573C35.9435 28.0479 35.9435 22.2744 31.9435 19.965L11 7.87326C7 5.56385 2 8.4506 2 13.0694L2 37.2529Z" fill="white"/>
</svg>
