<svg width="30" height="33" viewBox="0 0 30 33" fill="none" xmlns="http://www.w3.org/2000/svg">
<path fill-rule="evenodd" clip-rule="evenodd" d="M1 6.92383C1 4.1624 3.23858 1.92383 6 1.92383H29.0024C29.0008 1.94021 29 1.95682 29 1.97363V26.4736C29 29.2351 26.7614 31.4736 24 31.4736H0.997551C0.999171 31.4573 1 31.4406 1 31.4238V6.92383ZM30 1.42383C30 1.52538 29.9697 1.61986 29.9177 1.69873C29.9697 1.77761 30 1.87208 30 1.97363V31.4736C30 32.0259 29.5523 32.4736 29 32.4736H0.5C0.223857 32.4736 0 32.2498 0 31.9736C0 31.8721 0.0302737 31.7776 0.0822882 31.6987C0.0302737 31.6199 0 31.5254 0 31.4238V1.92383C0 1.37154 0.447715 0.923828 1 0.923828H29.5C29.7761 0.923828 30 1.14769 30 1.42383ZM13.943 17.6408C13.913 18.0848 13.97 18.6578 14.114 19.3598H15.455C15.347 18.7538 15.305 18.2678 15.329 17.9018C15.359 17.5358 15.476 17.2298 15.68 16.9838C15.884 16.7318 16.19 16.4738 16.598 16.2098C17.168 15.8378 17.609 15.4868 17.921 15.1568C18.239 14.8208 18.458 14.4878 18.578 14.1578C18.704 13.8278 18.767 13.4858 18.767 13.1318C18.767 12.4778 18.599 11.9228 18.263 11.4668C17.933 11.0048 17.477 10.6538 16.895 10.4138C16.313 10.1738 15.644 10.0538 14.888 10.0538C14.45 10.0538 14.039 10.0928 13.655 10.1708C13.277 10.2488 12.929 10.3628 12.611 10.5128C12.299 10.6568 12.02 10.8308 11.774 11.0348L12.242 12.1688C12.542 11.9108 12.902 11.7098 13.322 11.5658C13.748 11.4218 14.225 11.3498 14.753 11.3498C15.545 11.3498 16.166 11.5118 16.616 11.8358C17.066 12.1538 17.291 12.6398 17.291 13.2938C17.291 13.6778 17.177 14.0348 16.949 14.3648C16.727 14.6888 16.268 15.0698 15.572 15.5078C15.038 15.8438 14.642 16.1738 14.384 16.4978C14.126 16.8158 13.979 17.1968 13.943 17.6408ZM14.096 22.8968C14.318 23.0948 14.585 23.1938 14.897 23.1938C15.107 23.1938 15.296 23.1488 15.464 23.0588C15.638 22.9688 15.773 22.8428 15.869 22.6808C15.971 22.5188 16.022 22.3328 16.022 22.1228C16.022 21.8108 15.914 21.5558 15.698 21.3578C15.482 21.1538 15.215 21.0518 14.897 21.0518C14.687 21.0518 14.495 21.0998 14.321 21.1958C14.153 21.2858 14.018 21.4118 13.916 21.5738C13.814 21.7298 13.763 21.9128 13.763 22.1228C13.763 22.4348 13.874 22.6928 14.096 22.8968Z" fill="white"/>
</svg>
