<svg width="89" height="80" viewBox="0 0 89 80" fill="none" xmlns="http://www.w3.org/2000/svg">
<g opacity="0.5">
<path d="M3 3.62842L3 76.2882" stroke="white" stroke-width="5.75193" stroke-linecap="round"/>
<path fill-rule="evenodd" clip-rule="evenodd" d="M86.8632 0.0605469C86.7694 0.0605469 86.6775 0.0681975 86.5879 0.0829085C86.2563 0.137371 85.9304 0.254815 85.6393 0.422861V0.422861L25.5231 35.131V35.131C24.8859 35.4989 24.1264 35.9795 23.5204 36.397C23.3206 36.5347 23.1474 36.7179 23.018 36.9421C22.5524 37.7485 22.8287 38.7797 23.6351 39.2454L85.9108 75.2002C86.7173 75.6659 87.7485 75.3895 88.2141 74.5831C88.2396 74.5389 88.2629 74.494 88.284 74.4485C88.4574 74.0753 88.5493 73.655 88.5493 73.2435V73.2435L88.5493 1.74667C88.5493 0.815448 87.7944 0.0605468 86.8632 0.0605469ZM85.1771 55.4032C85.1771 62.283 77.7295 66.5828 71.7714 63.1429L41.1661 45.4729C35.208 42.033 35.208 33.4333 41.1661 29.9934L71.7714 12.3234C77.7295 8.88352 85.1771 13.1834 85.1771 20.0632L85.1771 55.4032Z" fill="white"/>
</g>
</svg>
