<svg width="89" height="80" viewBox="0 0 89 80" fill="none" xmlns="http://www.w3.org/2000/svg">
<path d="M3 3.56787L3 76.2277" stroke="white" stroke-width="5.75193" stroke-linecap="round"/>
<path fill-rule="evenodd" clip-rule="evenodd" d="M86.8632 0C86.7694 0 86.6775 0.00765066 86.5879 0.0223617C86.2563 0.0768244 85.9304 0.194269 85.6393 0.362315V0.362315L25.5231 35.0704V35.0704C24.8859 35.4383 24.1264 35.919 23.5204 36.3364C23.3206 36.4741 23.1474 36.6573 23.018 36.8815C22.5524 37.688 22.8287 38.7192 23.6351 39.1848L85.9108 75.1397C86.7173 75.6053 87.7485 75.329 88.2141 74.5225C88.2396 74.4783 88.2629 74.4334 88.284 74.388C88.4574 74.0148 88.5493 73.5944 88.5493 73.1829V73.1829L88.5493 1.68612C88.5493 0.754901 87.7944 0 86.8632 0ZM85.1771 55.3426C85.1771 62.2224 77.7295 66.5223 71.7714 63.0824L41.1661 45.4124C35.208 41.9725 35.208 33.3728 41.1661 29.9329L71.7714 12.2629C77.7295 8.82297 85.1771 13.1228 85.1771 20.0026L85.1771 55.3426Z" fill="white"/>
</svg>
