<svg width="60" height="60" viewBox="0 0 60 60" fill="none" xmlns="http://www.w3.org/2000/svg">
<path fill-rule="evenodd" clip-rule="evenodd" d="M57.4309 35.6441C54.8196 48.4027 43.5306 58 30 58C14.536 58 2 45.464 2 30C2 14.536 14.536 2 30 2C40.9997 2 50.518 8.3428 55.0969 17.5704L56.8786 16.6606C51.9684 6.78576 41.7767 0 30 0C13.4315 0 0 13.4315 0 30C0 46.5685 13.4315 60 30 60C44.3831 60 56.4022 49.8781 59.3226 36.3688L57.4309 35.6441Z" fill="black"/>
<path d="M58.7278 8.74926L57.2771 18.6514L47.2859 17.1876" stroke="black" stroke-width="2"/>
<path d="M58.7278 8.74926L57.712 15.6831C57.4718 17.3224 55.9481 18.4567 54.3088 18.2165L47.2859 17.1876" stroke="black" stroke-width="2"/>
</svg>
